<svg width="56" height="56" viewBox="0 0 56 56" fill="none" xmlns="http://www.w3.org/2000/svg">
<g filter="url(#filter0_d_123_5)">
<path fill-rule="evenodd" clip-rule="evenodd" d="M28 48C41.2548 48 52 37.2548 52 24C52 10.7452 41.2548 0 28 0C14.7452 0 4 10.7452 4 24C4 37.2548 14.7452 48 28 48Z" fill="black"/>
<path fill-rule="evenodd" clip-rule="evenodd" d="M32.3385 15.8896V17.7358H39.7231V15.8896H32.3385ZM13.6923 14.9287L22.214 15.0231C22.214 15.0231 26.8936 14.7763 27.5387 18.4918C28.1837 22.2072 25.1847 23.0851 25.1847 23.0851C25.1847 23.0851 28.8884 23.9263 28.3727 28.2661C27.857 32.6059 22.7995 32.6507 22.7995 32.6507H13.6923V14.9287ZM17.5693 21.982L21.0957 22.004C21.3214 22.004 21.9147 21.9843 22.4028 21.8691C22.6117 21.8197 23.0183 21.6794 23.2989 21.4263C23.4155 21.3213 23.6302 21.0252 23.7541 20.6743C23.8745 20.3333 23.9058 19.938 23.9058 19.7863C23.9058 19.5087 23.8553 19.2516 23.7541 19.0152C23.653 18.7788 23.5012 18.5743 23.2989 18.4017C23.0966 18.2291 22.8394 18.094 22.5271 17.9965C22.2149 17.8989 21.8433 17.8501 21.4123 17.8501L17.5693 17.8281V21.982ZM17.5693 29.4346L21.4221 29.4589C21.6687 29.4589 22.3169 29.4371 22.8502 29.3098C23.0784 29.2553 23.5226 29.1002 23.8293 28.8204C23.9566 28.7043 24.1912 28.3771 24.3266 27.9893C24.4581 27.6123 24.4923 27.1754 24.4923 27.0078C24.4923 26.7009 24.4371 26.4168 24.3266 26.1555C24.2161 25.8943 24.0503 25.6682 23.8293 25.4775C23.6083 25.2867 23.3272 25.1374 22.986 25.0296C22.6449 24.9217 22.2389 24.8678 21.768 24.8678L17.5693 24.8435V29.4346ZM33.1528 27.0741C33.1583 27.1773 33.1528 29.7226 35.2382 30.3072C37.6594 30.9859 38.7384 28.9748 38.8222 28.7418H41.9934C41.9114 29.1237 40.6223 34.3237 33.6084 32.629C29.303 31.5887 29.5244 26.4909 29.5244 26.0543C29.5244 25.6522 29.5418 23.5136 31.2767 21.5414C33.0116 19.5693 35.4816 19.5693 35.9818 19.5693C36.482 19.5693 39.0545 19.5693 40.6223 21.3097C42.6508 23.5615 42.2485 27.1697 42.2485 27.1697L33.1528 27.0741ZM38.7077 24.8435C38.6831 24.4445 38.6032 24.0769 38.468 23.7405C38.3328 23.4041 38.1463 23.1127 37.9086 22.8663C37.6709 22.6199 37.3861 22.4263 37.0542 22.2855C36.7223 22.1447 36.3514 22.0743 35.9416 22.0743C35.5728 22.0743 35.2306 22.1486 34.9151 22.2972C34.5995 22.4458 34.3229 22.6473 34.0852 22.9015C33.8476 23.1557 33.657 23.4491 33.5136 23.7816C33.3702 24.114 33.2862 24.468 33.2616 24.8435H38.7077Z" fill="white"/>
</g>
<defs>
<filter id="filter0_d_123_5" x="0" y="0" width="56" height="56" filterUnits="userSpaceOnUse" color-interpolation-filters="sRGB">
<feFlood flood-opacity="0" result="BackgroundImageFix"/>
<feColorMatrix in="SourceAlpha" type="matrix" values="0 0 0 0 0 0 0 0 0 0 0 0 0 0 0 0 0 0 127 0" result="hardAlpha"/>
<feOffset dy="4"/>
<feGaussianBlur stdDeviation="2"/>
<feComposite in2="hardAlpha" operator="out"/>
<feColorMatrix type="matrix" values="0 0 0 0 0 0 0 0 0 0 0 0 0 0 0 0 0 0 0.25 0"/>
<feBlend mode="normal" in2="BackgroundImageFix" result="effect1_dropShadow_123_5"/>
<feBlend mode="normal" in="SourceGraphic" in2="effect1_dropShadow_123_5" result="shape"/>
</filter>
</defs>
</svg>
