<svg width="490" height="21" viewBox="0 0 490 21" fill="none" xmlns="http://www.w3.org/2000/svg">
<path d="M0.84 9.608C0.84 8.568 1.024 7.592 1.392 6.68C1.76 5.768 2.28 4.976 2.952 4.304C3.624 3.632 4.432 3.104 5.376 2.72C6.32 2.336 7.368 2.144 8.52 2.144C9.672 2.144 10.72 2.336 11.664 2.72C12.608 3.104 13.424 3.632 14.112 4.304C14.8 4.976 15.328 5.768 15.696 6.68C16.08 7.592 16.272 8.568 16.272 9.608C16.272 10.664 16.08 11.648 15.696 12.56C15.328 13.456 14.8 14.24 14.112 14.912C13.424 15.568 12.608 16.088 11.664 16.472C10.72 16.856 9.672 17.048 8.52 17.048C7.368 17.048 6.32 16.856 5.376 16.472C4.432 16.088 3.624 15.568 2.952 14.912C2.28 14.24 1.76 13.456 1.392 12.56C1.024 11.648 0.84 10.664 0.84 9.608ZM8.52 4.304C7.72 4.304 7.008 4.44 6.384 4.712C5.76 4.968 5.224 5.336 4.776 5.816C4.328 6.28 3.984 6.84 3.744 7.496C3.52 8.136 3.408 8.84 3.408 9.608C3.408 10.376 3.52 11.08 3.744 11.72C3.984 12.36 4.328 12.912 4.776 13.376C5.224 13.84 5.76 14.2 6.384 14.456C7.008 14.712 7.72 14.84 8.52 14.84C9.32 14.84 10.032 14.712 10.656 14.456C11.296 14.2 11.832 13.84 12.264 13.376C12.712 12.912 13.048 12.36 13.272 11.72C13.512 11.08 13.632 10.376 13.632 9.608C13.632 8.84 13.512 8.136 13.272 7.496C13.048 6.84 12.712 6.28 12.264 5.816C11.832 5.336 11.296 4.968 10.656 4.712C10.032 4.44 9.32 4.304 8.52 4.304ZM9.456 8.048C9.024 8.048 8.656 8.176 8.352 8.432C8.048 8.688 7.896 9.048 7.896 9.512C7.896 10.008 8.04 10.392 8.328 10.664C8.616 10.936 8.984 11.072 9.432 11.072C9.736 11.072 9.992 11.032 10.2 10.952C10.424 10.872 10.616 10.792 10.776 10.712C11.144 11.032 11.328 11.432 11.328 11.912C11.328 12.28 11.104 12.6 10.656 12.872C10.208 13.144 9.624 13.28 8.904 13.28C8.376 13.28 7.88 13.2 7.416 13.04C6.968 12.864 6.576 12.616 6.24 12.296C5.904 11.976 5.64 11.584 5.448 11.12C5.256 10.64 5.16 10.096 5.16 9.488C5.16 8.864 5.272 8.328 5.496 7.88C5.736 7.416 6.04 7.032 6.408 6.728C6.776 6.424 7.184 6.2 7.632 6.056C8.096 5.896 8.552 5.816 9 5.816C9.672 5.816 10.208 5.952 10.608 6.224C11.008 6.48 11.208 6.808 11.208 7.208C11.208 7.672 11.048 8.064 10.728 8.384C10.584 8.304 10.4 8.232 10.176 8.168C9.968 8.088 9.728 8.048 9.456 8.048ZM27.6981 2.048C28.6101 2.048 29.4181 2.168 30.1221 2.408C30.8261 2.632 31.4261 2.944 31.9221 3.344C32.4181 3.744 32.7941 4.216 33.0501 4.76C33.3061 5.304 33.4341 5.888 33.4341 6.512C33.4341 8.192 32.4821 9.792 30.5781 11.312L27.4341 13.832H33.1941C33.2901 14.008 33.3781 14.232 33.4581 14.504C33.5541 14.776 33.6021 15.072 33.6021 15.392C33.6021 15.968 33.4741 16.384 33.2181 16.64C32.9621 16.88 32.6261 17 32.2101 17H23.8821C23.5301 16.76 23.2501 16.456 23.0421 16.088C22.8501 15.704 22.7541 15.256 22.7541 14.744C22.7541 14.2 22.8661 13.744 23.0901 13.376C23.3141 12.992 23.5621 12.688 23.8341 12.464L27.1461 9.632C27.5621 9.28 27.9061 8.968 28.1781 8.696C28.4501 8.408 28.6661 8.152 28.8261 7.928C29.0021 7.704 29.1221 7.496 29.1861 7.304C29.2661 7.112 29.3061 6.928 29.3061 6.752C29.3061 6.304 29.1061 5.952 28.7061 5.696C28.3221 5.44 27.8421 5.312 27.2661 5.312C26.6261 5.312 26.0501 5.416 25.5381 5.624C25.0421 5.816 24.6261 6.024 24.2901 6.248C24.0181 6.056 23.7941 5.816 23.6181 5.528C23.4421 5.24 23.3541 4.904 23.3541 4.52C23.3541 3.688 23.7461 3.072 24.5301 2.672C25.3141 2.256 26.3701 2.048 27.6981 2.048ZM44.0531 9.704C44.0531 8.296 43.8451 7.208 43.4291 6.44C43.0291 5.672 42.4531 5.288 41.7011 5.288C40.9491 5.288 40.3731 5.672 39.9731 6.44C39.5891 7.208 39.3971 8.296 39.3971 9.704C39.3971 11.112 39.5891 12.208 39.9731 12.992C40.3731 13.76 40.9491 14.144 41.7011 14.144C42.4531 14.144 43.0291 13.76 43.4291 12.992C43.8451 12.208 44.0531 11.112 44.0531 9.704ZM48.1571 9.704C48.1571 10.936 47.9971 12.032 47.6771 12.992C47.3571 13.952 46.9091 14.76 46.3331 15.416C45.7731 16.056 45.0931 16.544 44.2931 16.88C43.5091 17.216 42.6531 17.384 41.7251 17.384C40.7811 17.384 39.9091 17.216 39.1091 16.88C38.3251 16.544 37.6451 16.056 37.0691 15.416C36.5091 14.76 36.0691 13.952 35.7491 12.992C35.4451 12.032 35.2931 10.936 35.2931 9.704C35.2931 8.472 35.4451 7.384 35.7491 6.44C36.0691 5.48 36.5091 4.68 37.0691 4.04C37.6451 3.384 38.3251 2.888 39.1091 2.552C39.9091 2.216 40.7811 2.048 41.7251 2.048C42.6531 2.048 43.5091 2.216 44.2931 2.552C45.0931 2.888 45.7731 3.384 46.3331 4.04C46.9091 4.68 47.3571 5.48 47.6771 6.44C47.9971 7.384 48.1571 8.472 48.1571 9.704ZM54.4403 2.048C55.3523 2.048 56.1603 2.168 56.8643 2.408C57.5683 2.632 58.1683 2.944 58.6643 3.344C59.1603 3.744 59.5363 4.216 59.7923 4.76C60.0483 5.304 60.1763 5.888 60.1763 6.512C60.1763 8.192 59.2243 9.792 57.3203 11.312L54.1763 13.832H59.9363C60.0323 14.008 60.1203 14.232 60.2003 14.504C60.2963 14.776 60.3443 15.072 60.3443 15.392C60.3443 15.968 60.2163 16.384 59.9603 16.64C59.7043 16.88 59.3683 17 58.9523 17H50.6243C50.2723 16.76 49.9923 16.456 49.7843 16.088C49.5923 15.704 49.4963 15.256 49.4963 14.744C49.4963 14.2 49.6083 13.744 49.8323 13.376C50.0563 12.992 50.3043 12.688 50.5763 12.464L53.8883 9.632C54.3043 9.28 54.6483 8.968 54.9203 8.696C55.1923 8.408 55.4083 8.152 55.5683 7.928C55.7443 7.704 55.8643 7.496 55.9283 7.304C56.0083 7.112 56.0483 6.928 56.0483 6.752C56.0483 6.304 55.8483 5.952 55.4483 5.696C55.0643 5.44 54.5843 5.312 54.0083 5.312C53.3683 5.312 52.7923 5.416 52.2803 5.624C51.7843 5.816 51.3683 6.024 51.0323 6.248C50.7603 6.056 50.5363 5.816 50.3603 5.528C50.1843 5.24 50.0963 4.904 50.0963 4.52C50.0963 3.688 50.4883 3.072 51.2723 2.672C52.0563 2.256 53.1123 2.048 54.4403 2.048ZM66.9793 2.048C67.8913 2.048 68.6993 2.168 69.4033 2.408C70.1073 2.632 70.7073 2.944 71.2033 3.344C71.6993 3.744 72.0753 4.216 72.3313 4.76C72.5873 5.304 72.7153 5.888 72.7153 6.512C72.7153 8.192 71.7633 9.792 69.8593 11.312L66.7153 13.832H72.4753C72.5713 14.008 72.6593 14.232 72.7393 14.504C72.8353 14.776 72.8833 15.072 72.8833 15.392C72.8833 15.968 72.7553 16.384 72.4993 16.64C72.2433 16.88 71.9073 17 71.4913 17H63.1633C62.8113 16.76 62.5313 16.456 62.3233 16.088C62.1313 15.704 62.0353 15.256 62.0353 14.744C62.0353 14.2 62.1473 13.744 62.3713 13.376C62.5953 12.992 62.8433 12.688 63.1153 12.464L66.4273 9.632C66.8433 9.28 67.1873 8.968 67.4593 8.696C67.7313 8.408 67.9473 8.152 68.1073 7.928C68.2833 7.704 68.4033 7.496 68.4673 7.304C68.5473 7.112 68.5873 6.928 68.5873 6.752C68.5873 6.304 68.3873 5.952 67.9873 5.696C67.6033 5.44 67.1233 5.312 66.5473 5.312C65.9073 5.312 65.3313 5.416 64.8193 5.624C64.3233 5.816 63.9073 6.024 63.5713 6.248C63.2993 6.056 63.0753 5.816 62.8993 5.528C62.7233 5.24 62.6353 4.904 62.6353 4.52C62.6353 3.688 63.0273 3.072 63.8113 2.672C64.5953 2.256 65.6513 2.048 66.9793 2.048ZM83.1951 2.888C83.4671 2.728 83.8751 2.576 84.4191 2.432C84.9791 2.288 85.5391 2.216 86.0991 2.216C86.8991 2.216 87.6031 2.336 88.2111 2.576C88.8351 2.8 89.2351 3.16 89.4111 3.656C89.6991 4.488 90.0111 5.456 90.3471 6.56C90.6831 7.664 91.0191 8.808 91.3551 9.992C91.6911 11.16 92.0191 12.32 92.3391 13.472C92.6591 14.608 92.9391 15.616 93.1791 16.496C92.9871 16.72 92.6991 16.896 92.3151 17.024C91.9311 17.168 91.4751 17.24 90.9471 17.24C90.5631 17.24 90.2351 17.208 89.9631 17.144C89.7071 17.08 89.4911 16.984 89.3151 16.856C89.1551 16.728 89.0191 16.56 88.9071 16.352C88.8111 16.144 88.7231 15.904 88.6431 15.632L88.2111 13.976H83.8671C83.7391 14.456 83.6111 14.952 83.4831 15.464C83.3551 15.976 83.2271 16.472 83.0991 16.952C82.8751 17.032 82.6351 17.096 82.3791 17.144C82.1391 17.208 81.8431 17.24 81.4911 17.24C80.6751 17.24 80.0671 17.104 79.6671 16.832C79.2831 16.544 79.0911 16.152 79.0911 15.656C79.0911 15.432 79.1231 15.208 79.1871 14.984C79.2511 14.76 79.3231 14.496 79.4031 14.192C79.5151 13.76 79.6671 13.224 79.8591 12.584C80.0671 11.944 80.2911 11.256 80.5311 10.52C80.7711 9.768 81.0271 9 81.2991 8.216C81.5711 7.432 81.8271 6.696 82.0671 6.008C82.3071 5.304 82.5231 4.68 82.7151 4.136C82.9231 3.592 83.0831 3.176 83.1951 2.888ZM86.0751 5.984C85.8511 6.656 85.5951 7.408 85.3071 8.24C85.0351 9.056 84.7871 9.888 84.5631 10.736H87.5391C87.3151 9.872 87.0831 9.032 86.8431 8.216C86.6191 7.384 86.4111 6.64 86.2191 5.984H86.0751ZM97.3779 17.072C96.6899 17.072 96.1459 16.872 95.7459 16.472C95.3459 16.072 95.1459 15.528 95.1459 14.84V2.432C95.3219 2.4 95.6019 2.36 95.9859 2.312C96.3699 2.248 96.7379 2.216 97.0899 2.216C97.4579 2.216 97.7779 2.248 98.0499 2.312C98.3379 2.36 98.5779 2.456 98.7699 2.6C98.9619 2.744 99.1059 2.944 99.2019 3.2C99.2979 3.456 99.3459 3.792 99.3459 4.208V13.688H104.842C104.954 13.864 105.058 14.104 105.154 14.408C105.25 14.696 105.298 15 105.298 15.32C105.298 15.96 105.162 16.416 104.89 16.688C104.618 16.944 104.258 17.072 103.81 17.072H97.3779ZM109.683 17.072C108.995 17.072 108.451 16.872 108.051 16.472C107.651 16.072 107.451 15.528 107.451 14.84V2.432C107.627 2.4 107.907 2.36 108.291 2.312C108.675 2.248 109.043 2.216 109.395 2.216C109.763 2.216 110.083 2.248 110.355 2.312C110.643 2.36 110.883 2.456 111.075 2.6C111.267 2.744 111.411 2.944 111.507 3.2C111.603 3.456 111.651 3.792 111.651 4.208V13.688H117.147C117.259 13.864 117.363 14.104 117.459 14.408C117.555 14.696 117.603 15 117.603 15.32C117.603 15.96 117.467 16.416 117.195 16.688C116.923 16.944 116.563 17.072 116.115 17.072H109.683ZM128.736 12.296V16.904C128.56 16.952 128.28 17 127.896 17.048C127.528 17.096 127.16 17.12 126.792 17.12C126.424 17.12 126.096 17.088 125.808 17.024C125.536 16.976 125.304 16.88 125.112 16.736C124.936 16.592 124.8 16.392 124.704 16.136C124.608 15.88 124.56 15.544 124.56 15.128V3.824C124.56 3.488 124.648 3.232 124.824 3.056C125.016 2.864 125.272 2.712 125.592 2.6C126.136 2.408 126.768 2.272 127.488 2.192C128.208 2.096 128.976 2.048 129.792 2.048C132 2.048 133.664 2.512 134.784 3.44C135.904 4.368 136.464 5.624 136.464 7.208C136.464 8.2 136.208 9.048 135.696 9.752C135.184 10.456 134.576 11 133.872 11.384C134.448 12.168 135.016 12.904 135.576 13.592C136.136 14.28 136.576 14.904 136.896 15.464C136.736 16.024 136.44 16.456 136.008 16.76C135.592 17.048 135.12 17.192 134.592 17.192C134.24 17.192 133.936 17.152 133.68 17.072C133.424 16.992 133.2 16.88 133.008 16.736C132.816 16.592 132.64 16.416 132.48 16.208C132.32 16 132.168 15.776 132.024 15.536L130.008 12.296H128.736ZM130.248 9.104C130.856 9.104 131.336 8.952 131.688 8.648C132.04 8.328 132.216 7.864 132.216 7.256C132.216 6.648 132.016 6.192 131.616 5.888C131.232 5.568 130.616 5.408 129.768 5.408C129.528 5.408 129.336 5.416 129.192 5.432C129.048 5.448 128.888 5.472 128.712 5.504V9.104H130.248ZM143.385 16.904C143.209 16.952 142.929 17 142.545 17.048C142.177 17.096 141.809 17.12 141.441 17.12C141.073 17.12 140.745 17.088 140.457 17.024C140.185 16.976 139.953 16.88 139.761 16.736C139.569 16.592 139.425 16.392 139.329 16.136C139.233 15.88 139.185 15.544 139.185 15.128V2.456C139.361 2.424 139.641 2.384 140.025 2.336C140.409 2.272 140.777 2.24 141.129 2.24C141.497 2.24 141.817 2.272 142.089 2.336C142.377 2.384 142.617 2.48 142.809 2.624C143.001 2.768 143.145 2.968 143.241 3.224C143.337 3.48 143.385 3.816 143.385 4.232V16.904ZM159.674 14.624C159.674 15.12 159.586 15.488 159.41 15.728C159.234 15.968 158.954 16.2 158.57 16.424C158.346 16.552 158.066 16.68 157.73 16.808C157.394 16.92 157.026 17.016 156.626 17.096C156.226 17.192 155.802 17.264 155.354 17.312C154.922 17.36 154.49 17.384 154.058 17.384C152.906 17.384 151.826 17.232 150.818 16.928C149.81 16.608 148.93 16.136 148.178 15.512C147.442 14.872 146.858 14.08 146.426 13.136C145.994 12.192 145.778 11.096 145.778 9.848C145.778 8.536 146.01 7.392 146.474 6.416C146.954 5.44 147.578 4.632 148.346 3.992C149.13 3.336 150.018 2.848 151.01 2.528C152.018 2.208 153.05 2.048 154.106 2.048C155.626 2.048 156.826 2.296 157.706 2.792C158.602 3.272 159.049 3.904 159.049 4.688C159.049 5.104 158.946 5.464 158.738 5.768C158.53 6.072 158.29 6.312 158.018 6.488C157.618 6.248 157.114 6.016 156.506 5.792C155.914 5.552 155.242 5.432 154.49 5.432C153.146 5.432 152.074 5.816 151.273 6.584C150.49 7.352 150.098 8.416 150.098 9.776C150.098 10.512 150.202 11.152 150.41 11.696C150.634 12.224 150.93 12.664 151.298 13.016C151.666 13.352 152.09 13.608 152.57 13.784C153.05 13.944 153.562 14.024 154.106 14.024C154.458 14.024 154.77 13.992 155.042 13.928C155.314 13.864 155.522 13.792 155.666 13.712V11.456H153.098C153.002 11.28 152.906 11.048 152.81 10.76C152.73 10.472 152.69 10.168 152.69 9.848C152.69 9.272 152.818 8.856 153.074 8.6C153.346 8.344 153.69 8.216 154.106 8.216H158.161C158.642 8.216 159.01 8.352 159.266 8.624C159.538 8.88 159.674 9.248 159.674 9.728V14.624ZM175.443 16.904C175.267 16.952 174.987 17 174.603 17.048C174.235 17.096 173.867 17.12 173.499 17.12C173.131 17.12 172.803 17.088 172.515 17.024C172.243 16.976 172.011 16.88 171.819 16.736C171.627 16.592 171.483 16.392 171.387 16.136C171.291 15.88 171.243 15.544 171.243 15.128V11.384H166.635V16.904C166.459 16.952 166.179 17 165.795 17.048C165.427 17.096 165.059 17.12 164.691 17.12C164.323 17.12 163.995 17.088 163.707 17.024C163.435 16.976 163.203 16.88 163.011 16.736C162.819 16.592 162.675 16.392 162.579 16.136C162.483 15.88 162.435 15.544 162.435 15.128V2.456C162.611 2.424 162.891 2.384 163.275 2.336C163.659 2.272 164.027 2.24 164.379 2.24C164.747 2.24 165.067 2.272 165.339 2.336C165.627 2.384 165.867 2.48 166.059 2.624C166.251 2.768 166.395 2.968 166.491 3.224C166.587 3.48 166.635 3.816 166.635 4.232V8.072H171.243V2.456C171.419 2.424 171.699 2.384 172.083 2.336C172.467 2.272 172.835 2.24 173.187 2.24C173.555 2.24 173.875 2.272 174.147 2.336C174.435 2.384 174.675 2.48 174.867 2.624C175.059 2.768 175.203 2.968 175.299 3.224C175.395 3.48 175.443 3.816 175.443 4.232V16.904ZM177.888 5.816C177.776 5.64 177.672 5.4 177.576 5.096C177.48 4.792 177.432 4.472 177.432 4.136C177.432 3.512 177.568 3.064 177.84 2.792C178.128 2.52 178.496 2.384 178.944 2.384H189.408C189.52 2.56 189.624 2.8 189.72 3.104C189.816 3.408 189.864 3.728 189.864 4.064C189.864 4.688 189.72 5.136 189.432 5.408C189.16 5.68 188.8 5.816 188.352 5.816H185.688V16.904C185.512 16.952 185.232 17 184.848 17.048C184.48 17.096 184.112 17.12 183.744 17.12C183.376 17.12 183.048 17.088 182.76 17.024C182.488 16.976 182.256 16.88 182.064 16.736C181.872 16.592 181.728 16.392 181.632 16.136C181.536 15.88 181.488 15.544 181.488 15.128V5.816H177.888ZM195.836 11.216C195.132 10.976 194.492 10.736 193.916 10.496C193.34 10.24 192.844 9.936 192.428 9.584C192.012 9.232 191.684 8.816 191.444 8.336C191.22 7.84 191.108 7.24 191.108 6.536C191.108 5.176 191.628 4.088 192.668 3.272C193.724 2.456 195.196 2.048 197.084 2.048C197.772 2.048 198.412 2.096 199.004 2.192C199.596 2.288 200.1 2.44 200.516 2.648C200.948 2.84 201.284 3.096 201.524 3.416C201.764 3.72 201.884 4.08 201.884 4.496C201.884 4.912 201.788 5.272 201.596 5.576C201.404 5.864 201.172 6.112 200.9 6.32C200.548 6.096 200.076 5.904 199.484 5.744C198.892 5.568 198.244 5.48 197.54 5.48C196.82 5.48 196.292 5.584 195.956 5.792C195.62 5.984 195.452 6.232 195.452 6.536C195.452 6.776 195.556 6.976 195.764 7.136C195.972 7.28 196.284 7.416 196.7 7.544L197.972 7.952C199.476 8.432 200.628 9.048 201.428 9.8C202.244 10.536 202.652 11.544 202.652 12.824C202.652 14.184 202.116 15.288 201.044 16.136C199.972 16.968 198.396 17.384 196.316 17.384C195.58 17.384 194.892 17.32 194.252 17.192C193.628 17.08 193.076 16.912 192.596 16.688C192.132 16.448 191.764 16.16 191.492 15.824C191.236 15.472 191.108 15.072 191.108 14.624C191.108 14.16 191.244 13.768 191.516 13.448C191.788 13.112 192.084 12.856 192.404 12.68C192.852 13.032 193.396 13.336 194.036 13.592C194.692 13.848 195.404 13.976 196.172 13.976C196.956 13.976 197.508 13.856 197.828 13.616C198.148 13.376 198.308 13.096 198.308 12.776C198.308 12.456 198.18 12.216 197.924 12.056C197.668 11.88 197.308 11.712 196.844 11.552L195.836 11.216ZM213.908 12.296V16.904C213.732 16.952 213.452 17 213.068 17.048C212.7 17.096 212.332 17.12 211.964 17.12C211.596 17.12 211.268 17.088 210.98 17.024C210.708 16.976 210.476 16.88 210.284 16.736C210.108 16.592 209.972 16.392 209.876 16.136C209.78 15.88 209.732 15.544 209.732 15.128V3.824C209.732 3.488 209.82 3.232 209.996 3.056C210.188 2.864 210.444 2.712 210.764 2.6C211.308 2.408 211.94 2.272 212.66 2.192C213.38 2.096 214.148 2.048 214.964 2.048C217.172 2.048 218.836 2.512 219.956 3.44C221.076 4.368 221.636 5.624 221.636 7.208C221.636 8.2 221.38 9.048 220.868 9.752C220.356 10.456 219.748 11 219.044 11.384C219.62 12.168 220.188 12.904 220.748 13.592C221.308 14.28 221.748 14.904 222.068 15.464C221.908 16.024 221.612 16.456 221.18 16.76C220.764 17.048 220.292 17.192 219.764 17.192C219.412 17.192 219.108 17.152 218.852 17.072C218.596 16.992 218.372 16.88 218.18 16.736C217.988 16.592 217.812 16.416 217.652 16.208C217.492 16 217.34 15.776 217.196 15.536L215.18 12.296H213.908ZM215.42 9.104C216.028 9.104 216.508 8.952 216.86 8.648C217.212 8.328 217.388 7.864 217.388 7.256C217.388 6.648 217.188 6.192 216.788 5.888C216.404 5.568 215.788 5.408 214.94 5.408C214.7 5.408 214.508 5.416 214.364 5.432C214.22 5.448 214.06 5.472 213.884 5.504V9.104H215.42ZM224.357 4.688C224.357 4 224.557 3.456 224.957 3.056C225.357 2.656 225.901 2.456 226.589 2.456H234.509C234.621 2.632 234.717 2.864 234.797 3.152C234.893 3.44 234.941 3.744 234.941 4.064C234.941 4.672 234.805 5.104 234.533 5.36C234.277 5.616 233.933 5.744 233.501 5.744H228.437V7.976H233.837C233.949 8.152 234.045 8.384 234.125 8.672C234.221 8.944 234.269 9.24 234.269 9.56C234.269 10.168 234.141 10.6 233.885 10.856C233.629 11.112 233.285 11.24 232.853 11.24H228.437V13.76H234.605C234.717 13.936 234.813 14.168 234.893 14.456C234.989 14.744 235.037 15.048 235.037 15.368C235.037 15.976 234.901 16.416 234.629 16.688C234.373 16.944 234.029 17.072 233.597 17.072H226.589C225.901 17.072 225.357 16.872 224.957 16.472C224.557 16.072 224.357 15.528 224.357 14.84V4.688ZM241.751 11.216C241.047 10.976 240.407 10.736 239.831 10.496C239.255 10.24 238.759 9.936 238.343 9.584C237.927 9.232 237.599 8.816 237.359 8.336C237.135 7.84 237.023 7.24 237.023 6.536C237.023 5.176 237.543 4.088 238.583 3.272C239.639 2.456 241.111 2.048 242.999 2.048C243.687 2.048 244.327 2.096 244.919 2.192C245.511 2.288 246.015 2.44 246.431 2.648C246.863 2.84 247.199 3.096 247.439 3.416C247.679 3.72 247.799 4.08 247.799 4.496C247.799 4.912 247.703 5.272 247.511 5.576C247.319 5.864 247.087 6.112 246.815 6.32C246.463 6.096 245.991 5.904 245.399 5.744C244.807 5.568 244.159 5.48 243.455 5.48C242.735 5.48 242.207 5.584 241.871 5.792C241.535 5.984 241.367 6.232 241.367 6.536C241.367 6.776 241.471 6.976 241.679 7.136C241.887 7.28 242.199 7.416 242.615 7.544L243.887 7.952C245.391 8.432 246.543 9.048 247.343 9.8C248.159 10.536 248.567 11.544 248.567 12.824C248.567 14.184 248.031 15.288 246.959 16.136C245.887 16.968 244.311 17.384 242.23 17.384C241.495 17.384 240.807 17.32 240.167 17.192C239.543 17.08 238.991 16.912 238.511 16.688C238.047 16.448 237.679 16.16 237.407 15.824C237.151 15.472 237.023 15.072 237.023 14.624C237.023 14.16 237.159 13.768 237.431 13.448C237.703 13.112 237.999 12.856 238.319 12.68C238.767 13.032 239.311 13.336 239.951 13.592C240.607 13.848 241.319 13.976 242.087 13.976C242.871 13.976 243.423 13.856 243.743 13.616C244.063 13.376 244.223 13.096 244.223 12.776C244.223 12.456 244.095 12.216 243.839 12.056C243.583 11.88 243.223 11.712 242.759 11.552L241.751 11.216ZM250.841 4.688C250.841 4 251.041 3.456 251.441 3.056C251.841 2.656 252.385 2.456 253.073 2.456H260.993C261.105 2.632 261.201 2.864 261.281 3.152C261.377 3.44 261.425 3.744 261.425 4.064C261.425 4.672 261.289 5.104 261.017 5.36C260.761 5.616 260.417 5.744 259.985 5.744H254.921V7.976H260.321C260.433 8.152 260.529 8.384 260.609 8.672C260.705 8.944 260.753 9.24 260.753 9.56C260.753 10.168 260.625 10.6 260.369 10.856C260.113 11.112 259.769 11.24 259.337 11.24H254.921V13.76H261.089C261.201 13.936 261.297 14.168 261.377 14.456C261.473 14.744 261.521 15.048 261.521 15.368C261.521 15.976 261.385 16.416 261.113 16.688C260.857 16.944 260.513 17.072 260.081 17.072H253.073C252.385 17.072 251.841 16.872 251.441 16.472C251.041 16.072 250.841 15.528 250.841 14.84V4.688ZM268.166 12.296V16.904C267.99 16.952 267.71 17 267.326 17.048C266.958 17.096 266.59 17.12 266.222 17.12C265.854 17.12 265.526 17.088 265.238 17.024C264.966 16.976 264.734 16.88 264.542 16.736C264.366 16.592 264.23 16.392 264.134 16.136C264.038 15.88 263.99 15.544 263.99 15.128V3.824C263.99 3.488 264.078 3.232 264.254 3.056C264.446 2.864 264.702 2.712 265.022 2.6C265.566 2.408 266.198 2.272 266.918 2.192C267.638 2.096 268.406 2.048 269.222 2.048C271.43 2.048 273.094 2.512 274.214 3.44C275.334 4.368 275.894 5.624 275.894 7.208C275.894 8.2 275.638 9.048 275.126 9.752C274.614 10.456 274.006 11 273.302 11.384C273.878 12.168 274.446 12.904 275.006 13.592C275.566 14.28 276.006 14.904 276.326 15.464C276.166 16.024 275.87 16.456 275.438 16.76C275.022 17.048 274.55 17.192 274.022 17.192C273.67 17.192 273.366 17.152 273.11 17.072C272.854 16.992 272.63 16.88 272.438 16.736C272.246 16.592 272.07 16.416 271.91 16.208C271.75 16 271.598 15.776 271.454 15.536L269.438 12.296H268.166ZM269.678 9.104C270.286 9.104 270.766 8.952 271.118 8.648C271.47 8.328 271.646 7.864 271.646 7.256C271.646 6.648 271.446 6.192 271.046 5.888C270.662 5.568 270.046 5.408 269.198 5.408C268.958 5.408 268.766 5.416 268.622 5.432C268.478 5.448 268.318 5.472 268.142 5.504V9.104H269.678ZM286.952 16.52C286.728 16.712 286.376 16.88 285.896 17.024C285.432 17.168 284.92 17.24 284.36 17.24C283.688 17.24 283.112 17.144 282.632 16.952C282.152 16.744 281.824 16.464 281.648 16.112C281.472 15.744 281.256 15.272 281 14.696C280.744 14.104 280.472 13.448 280.184 12.728C279.912 12.008 279.624 11.248 279.32 10.448C279.032 9.632 278.752 8.808 278.48 7.976C278.208 7.144 277.952 6.328 277.712 5.528C277.472 4.728 277.264 3.976 277.088 3.272C277.312 3.048 277.632 2.848 278.048 2.672C278.48 2.48 278.936 2.384 279.416 2.384C280.008 2.384 280.488 2.512 280.856 2.768C281.24 3.008 281.52 3.464 281.696 4.136C282.128 5.704 282.56 7.208 282.992 8.648C283.44 10.072 283.904 11.56 284.384 13.112H284.528C284.96 11.608 285.4 9.968 285.848 8.192C286.312 6.416 286.752 4.648 287.168 2.888C287.456 2.744 287.76 2.624 288.08 2.528C288.416 2.432 288.792 2.384 289.208 2.384C289.8 2.384 290.304 2.52 290.72 2.792C291.136 3.048 291.344 3.48 291.344 4.088C291.344 4.44 291.256 4.952 291.08 5.624C290.92 6.296 290.704 7.056 290.432 7.904C290.176 8.736 289.88 9.608 289.544 10.52C289.224 11.432 288.896 12.296 288.56 13.112C288.24 13.912 287.936 14.624 287.648 15.248C287.36 15.856 287.128 16.28 286.952 16.52ZM293.451 4.688C293.451 4 293.651 3.456 294.051 3.056C294.451 2.656 294.995 2.456 295.683 2.456H303.603C303.715 2.632 303.811 2.864 303.891 3.152C303.987 3.44 304.035 3.744 304.035 4.064C304.035 4.672 303.899 5.104 303.627 5.36C303.371 5.616 303.027 5.744 302.595 5.744H297.531V7.976H302.931C303.043 8.152 303.139 8.384 303.219 8.672C303.315 8.944 303.363 9.24 303.363 9.56C303.363 10.168 303.235 10.6 302.979 10.856C302.723 11.112 302.379 11.24 301.947 11.24H297.531V13.76H303.699C303.811 13.936 303.907 14.168 303.987 14.456C304.083 14.744 304.131 15.048 304.131 15.368C304.131 15.976 303.995 16.416 303.723 16.688C303.467 16.944 303.123 17.072 302.691 17.072H295.683C294.995 17.072 294.451 16.872 294.051 16.472C293.651 16.072 293.451 15.528 293.451 14.84V4.688ZM310.775 13.88C310.951 13.912 311.167 13.944 311.423 13.976C311.679 13.992 311.919 14 312.143 14C312.687 14 313.183 13.92 313.631 13.76C314.095 13.6 314.487 13.352 314.807 13.016C315.143 12.68 315.399 12.248 315.575 11.72C315.767 11.176 315.863 10.528 315.863 9.776C315.863 8.336 315.527 7.256 314.855 6.536C314.183 5.8 313.287 5.432 312.167 5.432C311.943 5.432 311.711 5.44 311.471 5.456C311.247 5.472 311.015 5.496 310.775 5.528V13.88ZM312.119 17.384C311.847 17.384 311.535 17.376 311.183 17.36C310.831 17.344 310.463 17.312 310.079 17.264C309.711 17.216 309.335 17.152 308.951 17.072C308.583 17.008 308.239 16.912 307.919 16.784C307.039 16.448 306.599 15.864 306.599 15.032V3.824C306.599 3.488 306.687 3.232 306.863 3.056C307.055 2.864 307.311 2.712 307.631 2.6C308.319 2.376 309.047 2.232 309.815 2.168C310.583 2.088 311.271 2.048 311.879 2.048C313.127 2.048 314.255 2.2 315.263 2.504C316.287 2.808 317.159 3.28 317.879 3.92C318.615 4.544 319.183 5.336 319.583 6.296C319.983 7.256 320.183 8.392 320.183 9.704C320.183 10.984 319.991 12.104 319.607 13.064C319.223 14.008 318.671 14.808 317.951 15.464C317.247 16.104 316.399 16.584 315.407 16.904C314.415 17.224 313.319 17.384 312.119 17.384ZM331.012 20.216C330.852 20.248 330.62 20.28 330.316 20.312C330.012 20.36 329.708 20.384 329.404 20.384C328.764 20.384 328.268 20.28 327.916 20.072C327.564 19.864 327.388 19.408 327.388 18.704V0.775999C327.548 0.743999 327.78 0.711999 328.084 0.68C328.388 0.631999 328.692 0.607999 328.996 0.607999C329.636 0.607999 330.132 0.719999 330.484 0.943999C330.836 1.152 331.012 1.608 331.012 2.312V20.216ZM338.271 5.816C338.159 5.64 338.055 5.4 337.959 5.096C337.863 4.792 337.815 4.472 337.815 4.136C337.815 3.512 337.951 3.064 338.223 2.792C338.511 2.52 338.879 2.384 339.327 2.384H349.791C349.903 2.56 350.007 2.8 350.103 3.104C350.199 3.408 350.247 3.728 350.247 4.064C350.247 4.688 350.103 5.136 349.815 5.408C349.543 5.68 349.183 5.816 348.735 5.816H346.071V16.904C345.895 16.952 345.615 17 345.231 17.048C344.863 17.096 344.495 17.12 344.127 17.12C343.759 17.12 343.431 17.088 343.143 17.024C342.871 16.976 342.639 16.88 342.447 16.736C342.255 16.592 342.111 16.392 342.015 16.136C341.919 15.88 341.871 15.544 341.871 15.128V5.816H338.271ZM365.287 16.904C365.111 16.952 364.831 17 364.447 17.048C364.079 17.096 363.711 17.12 363.343 17.12C362.975 17.12 362.647 17.088 362.359 17.024C362.087 16.976 361.855 16.88 361.663 16.736C361.471 16.592 361.327 16.392 361.231 16.136C361.135 15.88 361.087 15.544 361.087 15.128V11.384H356.479V16.904C356.303 16.952 356.023 17 355.639 17.048C355.271 17.096 354.903 17.12 354.535 17.12C354.167 17.12 353.839 17.088 353.551 17.024C353.279 16.976 353.047 16.88 352.855 16.736C352.663 16.592 352.519 16.392 352.423 16.136C352.327 15.88 352.279 15.544 352.279 15.128V2.456C352.455 2.424 352.735 2.384 353.119 2.336C353.503 2.272 353.871 2.24 354.223 2.24C354.591 2.24 354.911 2.272 355.183 2.336C355.471 2.384 355.711 2.48 355.903 2.624C356.095 2.768 356.239 2.968 356.335 3.224C356.431 3.48 356.479 3.816 356.479 4.232V8.072H361.087V2.456C361.263 2.424 361.543 2.384 361.927 2.336C362.311 2.272 362.679 2.24 363.031 2.24C363.399 2.24 363.719 2.272 363.991 2.336C364.279 2.384 364.519 2.48 364.711 2.624C364.903 2.768 365.047 2.968 365.143 3.224C365.239 3.48 365.287 3.816 365.287 4.232V16.904ZM368.404 4.688C368.404 4 368.604 3.456 369.004 3.056C369.404 2.656 369.948 2.456 370.636 2.456H378.556C378.668 2.632 378.764 2.864 378.844 3.152C378.94 3.44 378.988 3.744 378.988 4.064C378.988 4.672 378.852 5.104 378.58 5.36C378.324 5.616 377.98 5.744 377.548 5.744H372.484V7.976H377.884C377.996 8.152 378.092 8.384 378.172 8.672C378.268 8.944 378.316 9.24 378.316 9.56C378.316 10.168 378.188 10.6 377.932 10.856C377.676 11.112 377.332 11.24 376.9 11.24H372.484V13.76H378.652C378.764 13.936 378.86 14.168 378.94 14.456C379.036 14.744 379.084 15.048 379.084 15.368C379.084 15.976 378.948 16.416 378.676 16.688C378.42 16.944 378.076 17.072 377.644 17.072H370.636C369.948 17.072 369.404 16.872 369.004 16.472C368.604 16.072 368.404 15.528 368.404 14.84V4.688ZM391.805 9.2C392.477 9.2 392.989 9.048 393.341 8.744C393.709 8.424 393.893 7.944 393.893 7.304C393.893 6.696 393.701 6.232 393.317 5.912C392.949 5.576 392.405 5.408 391.685 5.408C391.429 5.408 391.213 5.416 391.037 5.432C390.877 5.432 390.709 5.448 390.533 5.48V9.2H391.805ZM390.557 16.904C390.381 16.952 390.101 17 389.717 17.048C389.349 17.096 388.981 17.12 388.613 17.12C388.245 17.12 387.917 17.088 387.629 17.024C387.357 16.976 387.125 16.88 386.933 16.736C386.741 16.592 386.597 16.392 386.501 16.136C386.405 15.88 386.357 15.544 386.357 15.128V3.824C386.357 3.488 386.445 3.232 386.621 3.056C386.813 2.864 387.069 2.712 387.389 2.6C387.933 2.408 388.549 2.272 389.237 2.192C389.941 2.096 390.645 2.048 391.349 2.048C393.557 2.048 395.245 2.52 396.413 3.464C397.581 4.408 398.165 5.688 398.165 7.304C398.165 8.088 398.037 8.8 397.781 9.44C397.541 10.064 397.173 10.608 396.677 11.072C396.197 11.52 395.581 11.872 394.829 12.128C394.093 12.368 393.237 12.488 392.261 12.488H390.557V16.904ZM402.534 17.072C401.846 17.072 401.302 16.872 400.902 16.472C400.502 16.072 400.302 15.528 400.302 14.84V2.432C400.478 2.4 400.758 2.36 401.142 2.312C401.526 2.248 401.894 2.216 402.246 2.216C402.614 2.216 402.934 2.248 403.206 2.312C403.494 2.36 403.734 2.456 403.926 2.6C404.118 2.744 404.262 2.944 404.358 3.2C404.454 3.456 404.502 3.792 404.502 4.208V13.688H409.998C410.11 13.864 410.214 14.104 410.31 14.408C410.406 14.696 410.454 15 410.454 15.32C410.454 15.96 410.318 16.416 410.046 16.688C409.774 16.944 409.414 17.072 408.966 17.072H402.534ZM415.937 2.888C416.209 2.728 416.617 2.576 417.161 2.432C417.721 2.288 418.281 2.216 418.841 2.216C419.641 2.216 420.345 2.336 420.953 2.576C421.577 2.8 421.977 3.16 422.153 3.656C422.441 4.488 422.753 5.456 423.089 6.56C423.425 7.664 423.761 8.808 424.097 9.992C424.433 11.16 424.761 12.32 425.081 13.472C425.401 14.608 425.681 15.616 425.921 16.496C425.729 16.72 425.441 16.896 425.057 17.024C424.673 17.168 424.217 17.24 423.689 17.24C423.305 17.24 422.977 17.208 422.705 17.144C422.449 17.08 422.233 16.984 422.057 16.856C421.897 16.728 421.761 16.56 421.649 16.352C421.553 16.144 421.465 15.904 421.385 15.632L420.953 13.976H416.609C416.481 14.456 416.353 14.952 416.225 15.464C416.097 15.976 415.969 16.472 415.841 16.952C415.617 17.032 415.377 17.096 415.121 17.144C414.881 17.208 414.585 17.24 414.233 17.24C413.417 17.24 412.809 17.104 412.409 16.832C412.025 16.544 411.833 16.152 411.833 15.656C411.833 15.432 411.865 15.208 411.929 14.984C411.993 14.76 412.065 14.496 412.145 14.192C412.257 13.76 412.409 13.224 412.601 12.584C412.809 11.944 413.033 11.256 413.273 10.52C413.513 9.768 413.769 9 414.041 8.216C414.313 7.432 414.569 6.696 414.809 6.008C415.049 5.304 415.265 4.68 415.457 4.136C415.665 3.592 415.825 3.176 415.937 2.888ZM418.817 5.984C418.593 6.656 418.337 7.408 418.049 8.24C417.777 9.056 417.529 9.888 417.305 10.736H420.281C420.057 9.872 419.825 9.032 419.585 8.216C419.361 7.384 419.153 6.64 418.961 5.984H418.817ZM441.064 16.496C440.84 16.72 440.512 16.888 440.08 17C439.664 17.128 439.16 17.192 438.568 17.192C437.976 17.192 437.416 17.104 436.888 16.928C436.36 16.752 435.928 16.328 435.592 15.656L433.216 10.808C432.976 10.312 432.76 9.848 432.568 9.416C432.376 8.968 432.168 8.456 431.944 7.88L431.8 7.904C431.864 8.768 431.896 9.648 431.896 10.544C431.912 11.44 431.92 12.32 431.92 13.184V16.904C431.744 16.952 431.472 17 431.104 17.048C430.752 17.096 430.4 17.12 430.048 17.12C429.696 17.12 429.384 17.096 429.112 17.048C428.84 17 428.616 16.904 428.44 16.76C428.264 16.616 428.128 16.424 428.032 16.184C427.936 15.928 427.888 15.6 427.888 15.2V3.2C428.112 2.88 428.456 2.64 428.92 2.48C429.384 2.32 429.88 2.24 430.408 2.24C431 2.24 431.56 2.336 432.088 2.528C432.632 2.704 433.064 3.12 433.384 3.776L435.784 8.624C436.024 9.12 436.24 9.592 436.432 10.04C436.624 10.472 436.832 10.976 437.056 11.552L437.176 11.528C437.112 10.664 437.072 9.8 437.056 8.936C437.04 8.072 437.032 7.208 437.032 6.344V2.456C437.208 2.408 437.472 2.36 437.824 2.312C438.192 2.264 438.552 2.24 438.904 2.24C439.608 2.24 440.144 2.368 440.512 2.624C440.88 2.864 441.064 3.376 441.064 4.16V16.496ZM443.505 5.816C443.393 5.64 443.289 5.4 443.193 5.096C443.097 4.792 443.049 4.472 443.049 4.136C443.049 3.512 443.185 3.064 443.457 2.792C443.745 2.52 444.113 2.384 444.561 2.384H455.025C455.137 2.56 455.241 2.8 455.337 3.104C455.433 3.408 455.481 3.728 455.481 4.064C455.481 4.688 455.337 5.136 455.049 5.408C454.777 5.68 454.417 5.816 453.969 5.816H451.305V16.904C451.129 16.952 450.849 17 450.465 17.048C450.097 17.096 449.729 17.12 449.361 17.12C448.993 17.12 448.665 17.088 448.377 17.024C448.105 16.976 447.873 16.88 447.681 16.736C447.489 16.592 447.345 16.392 447.249 16.136C447.153 15.88 447.105 15.544 447.105 15.128V5.816H443.505ZM461.713 16.904C461.537 16.952 461.257 17 460.873 17.048C460.505 17.096 460.137 17.12 459.769 17.12C459.401 17.12 459.073 17.088 458.785 17.024C458.513 16.976 458.281 16.88 458.089 16.736C457.897 16.592 457.753 16.392 457.657 16.136C457.561 15.88 457.513 15.544 457.513 15.128V2.456C457.689 2.424 457.969 2.384 458.353 2.336C458.737 2.272 459.105 2.24 459.457 2.24C459.825 2.24 460.145 2.272 460.417 2.336C460.705 2.384 460.945 2.48 461.137 2.624C461.329 2.768 461.473 2.968 461.569 3.224C461.665 3.48 461.713 3.816 461.713 4.232V16.904ZM464.826 4.688C464.826 4 465.026 3.456 465.426 3.056C465.826 2.656 466.37 2.456 467.058 2.456H474.978C475.09 2.632 475.186 2.864 475.266 3.152C475.362 3.44 475.41 3.744 475.41 4.064C475.41 4.672 475.274 5.104 475.002 5.36C474.746 5.616 474.402 5.744 473.97 5.744H468.906V7.976H474.306C474.418 8.152 474.514 8.384 474.594 8.672C474.69 8.944 474.738 9.24 474.738 9.56C474.738 10.168 474.61 10.6 474.354 10.856C474.098 11.112 473.754 11.24 473.322 11.24H468.906V13.76H475.074C475.186 13.936 475.282 14.168 475.362 14.456C475.458 14.744 475.506 15.048 475.506 15.368C475.506 15.976 475.37 16.416 475.098 16.688C474.842 16.944 474.498 17.072 474.066 17.072H467.058C466.37 17.072 465.826 16.872 465.426 16.472C465.026 16.072 464.826 15.528 464.826 14.84V4.688ZM482.219 11.216C481.515 10.976 480.875 10.736 480.299 10.496C479.723 10.24 479.227 9.936 478.811 9.584C478.395 9.232 478.067 8.816 477.827 8.336C477.603 7.84 477.491 7.24 477.491 6.536C477.491 5.176 478.011 4.088 479.051 3.272C480.107 2.456 481.579 2.048 483.467 2.048C484.155 2.048 484.795 2.096 485.387 2.192C485.979 2.288 486.483 2.44 486.899 2.648C487.331 2.84 487.667 3.096 487.907 3.416C488.147 3.72 488.267 4.08 488.267 4.496C488.267 4.912 488.171 5.272 487.979 5.576C487.787 5.864 487.555 6.112 487.283 6.32C486.931 6.096 486.459 5.904 485.867 5.744C485.275 5.568 484.627 5.48 483.923 5.48C483.203 5.48 482.675 5.584 482.339 5.792C482.003 5.984 481.835 6.232 481.835 6.536C481.835 6.776 481.939 6.976 482.147 7.136C482.355 7.28 482.667 7.416 483.083 7.544L484.355 7.952C485.859 8.432 487.011 9.048 487.811 9.8C488.627 10.536 489.035 11.544 489.035 12.824C489.035 14.184 488.499 15.288 487.427 16.136C486.355 16.968 484.779 17.384 482.699 17.384C481.963 17.384 481.275 17.32 480.635 17.192C480.011 17.08 479.459 16.912 478.979 16.688C478.515 16.448 478.147 16.16 477.875 15.824C477.619 15.472 477.491 15.072 477.491 14.624C477.491 14.16 477.627 13.768 477.899 13.448C478.171 13.112 478.467 12.856 478.787 12.68C479.235 13.032 479.779 13.336 480.419 13.592C481.075 13.848 481.787 13.976 482.555 13.976C483.339 13.976 483.891 13.856 484.211 13.616C484.531 13.376 484.691 13.096 484.691 12.776C484.691 12.456 484.563 12.216 484.307 12.056C484.051 11.88 483.691 11.712 483.227 11.552L482.219 11.216Z" fill="white"/>
</svg>
