<svg width="56" height="56" viewBox="0 0 56 56" fill="none" xmlns="http://www.w3.org/2000/svg">
<g filter="url(#filter0_d_123_24)">
<path d="M28 48C41.2548 48 52 37.2548 52 24C52 10.7452 41.2548 0 28 0C14.7452 0 4 10.7452 4 24C4 37.2548 14.7452 48 28 48Z" fill="#1CB7EB"/>
</g>
<path d="M40.8 15.4C39.9 15.9 38.8 16.2 37.8 16.3C38.9 15.6 39.7 14.5 40.1 13.2C39.1 13.8 38 14.3 36.7 14.6C35.7 13.5 34.4 12.8 32.9 12.8C30 12.8 27.6 15.3 27.6 18.5C27.6 18.9 27.6 19.4 27.7 19.8C23.3 19.6 19.4 17.3 16.8 13.9C16.3 14.7 16.1 15.7 16.1 16.8C16.1 18.8 17 20.5 18.4 21.5C17.5 21.5 16.7 21.2 16 20.8V20.9C16 23.6 17.8 25.9 20.2 26.5C19.8 26.6 19.3 26.7 18.8 26.7C18.5 26.7 18.1 26.7 17.8 26.6C18.5 28.9 20.4 30.5 22.7 30.5C20.9 32 18.6 32.9001 16.2 32.9001C15.8 32.9001 15.4 32.9 14.9 32.8C17.2 34.4 20 35.4001 23 35.4001C32.7 35.4001 38 26.8 38 19.3C38 19.1 38 18.8 38 18.6C39.2 17.6 40.1 16.6 40.8 15.4Z" fill="white"/>
<defs>
<filter id="filter0_d_123_24" x="0" y="0" width="56" height="56" filterUnits="userSpaceOnUse" color-interpolation-filters="sRGB">
<feFlood flood-opacity="0" result="BackgroundImageFix"/>
<feColorMatrix in="SourceAlpha" type="matrix" values="0 0 0 0 0 0 0 0 0 0 0 0 0 0 0 0 0 0 127 0" result="hardAlpha"/>
<feOffset dy="4"/>
<feGaussianBlur stdDeviation="2"/>
<feComposite in2="hardAlpha" operator="out"/>
<feColorMatrix type="matrix" values="0 0 0 0 0 0 0 0 0 0 0 0 0 0 0 0 0 0 0.25 0"/>
<feBlend mode="normal" in2="BackgroundImageFix" result="effect1_dropShadow_123_24"/>
<feBlend mode="normal" in="SourceGraphic" in2="effect1_dropShadow_123_24" result="shape"/>
</filter>
</defs>
</svg>
